<?xml version="1.0" encoding="utf-8"?>
<!-- Generator: Adobe Illustrator 22.1.0, SVG Export Plug-In . SVG Version: 6.00 Build 0)  -->
<svg version="1.1" id="Layer_1" xmlns="http://www.w3.org/2000/svg" xmlns:xlink="http://www.w3.org/1999/xlink" x="0px" y="0px"
	 viewBox="0 0 222 34.3" style="enable-background:new 0 0 222 34.3;" xml:space="preserve">
<style type="text/css">
	.st0{fill:#FFFFFF;}
</style>
<g>
	<path class="st0" d="M9.2,0c1.1,0,2.2,0.1,3.1,0.3c1,0.2,1.8,0.6,2.5,1.1C15.5,2,16,2.7,16.4,3.6c0.4,0.9,0.6,2,0.6,3.3
		c0,1.5-0.3,2.8-1,3.8c-0.7,1.1-1.7,1.8-3.1,2.2V13c1.5,0.2,2.7,0.9,3.6,2c0.9,1.1,1.3,2.6,1.3,4.4c0,1.1-0.1,2.1-0.4,3.1
		c-0.3,1-0.8,1.8-1.4,2.5s-1.6,1.3-2.6,1.7c-1.1,0.4-2.4,0.7-4,0.7H0V0H9.2z M7.1,11.2c1.5,0,2.6-0.3,3.4-0.8
		c0.7-0.5,1.1-1.5,1.1-2.8c0-1.3-0.3-2.2-1-2.8s-1.6-0.8-3-0.8h-2v7.2H7.1z M7.7,23.3c1.3,0,2.4-0.3,3.2-0.9
		c0.8-0.6,1.2-1.7,1.2-3.3c0-0.8-0.1-1.4-0.3-2c-0.2-0.5-0.5-0.9-0.9-1.3c-0.4-0.3-0.8-0.5-1.3-0.7C9.1,15.1,8.5,15,7.9,15H5.5v8.2
		H7.7z"/>
	<path class="st0" d="M31.6,24.9c-0.6,1-1.3,1.7-2.2,2.2c-0.9,0.4-1.9,0.6-3.1,0.6c-1.7,0-3-0.4-3.9-1.3c-0.9-0.9-1.4-2.4-1.4-4.4
		V6.7h5.3v14.2c0,1.1,0.2,1.8,0.5,2.2c0.4,0.4,0.9,0.6,1.7,0.6c1.9,0,2.8-1.1,2.8-3.4V6.7h5.3v20.6h-5.1L31.6,24.9L31.6,24.9z"/>
	<path class="st0" d="M50.8,25.2c-0.6,1-1.2,1.6-2,2c-0.7,0.4-1.6,0.6-2.7,0.6c-2.2,0-3.8-0.8-4.8-2.5s-1.5-4.4-1.5-8.2
		s0.5-6.6,1.5-8.3c1-1.7,2.6-2.5,4.8-2.5c1,0,1.8,0.2,2.5,0.6c0.7,0.4,1.3,1,1.9,1.8h0.1V0h5.3v27.3h-5.1L50.8,25.2L50.8,25.2z
		 M45.6,22.1c0.3,1.1,1.1,1.7,2.2,1.7c1.2,0,1.9-0.6,2.3-1.7c0.3-1.1,0.5-2.8,0.5-5.1c0-2.2-0.2-3.9-0.5-5.1s-1.1-1.7-2.3-1.7
		c-1.1,0-1.9,0.6-2.2,1.7c-0.3,1.1-0.5,2.8-0.5,5.1C45.1,19.3,45.2,21,45.6,22.1z"/>
	<path class="st0" d="M74.9,26.3c0,2.7-0.7,4.6-2,6c-1.3,1.3-3.5,2-6.6,2c-2.2,0-4-0.5-5.2-1.4c-1.2-1-1.8-2.3-1.8-4.1h5.1
		c0,0.7,0.3,1.2,0.8,1.6c0.3,0.2,0.5,0.3,0.8,0.4c0.3,0.1,0.6,0.2,0.9,0.2c1.1,0,1.8-0.3,2.3-1c0.4-0.7,0.7-1.5,0.7-2.6v-2.7h-0.1
		c-0.5,0.8-1.2,1.4-2,1.8c-0.8,0.5-1.6,0.7-2.4,0.7c-2.1,0-3.7-0.8-4.7-2.4c-1.1-1.6-1.6-4.3-1.6-8c0-1.2,0.1-2.4,0.2-3.7
		c0.1-1.3,0.4-2.4,0.9-3.4c0.4-1,1.1-1.8,2-2.5c0.9-0.6,2-1,3.4-1c0.7,0,1.5,0.2,2.3,0.6c0.8,0.4,1.4,1.2,2,2.2h0.1V6.7h5.1V26.3z
		 M64.4,19.7c0.1,0.6,0.2,1.2,0.4,1.7s0.5,0.9,0.8,1.2c0.3,0.3,0.8,0.4,1.4,0.4c0.6,0,1-0.1,1.4-0.4c0.4-0.3,0.7-0.7,0.9-1.2
		c0.2-0.5,0.4-1.1,0.5-1.9c0.1-0.7,0.1-1.5,0.1-2.4c0-2.5-0.2-4.3-0.6-5.3c-0.4-1-1.1-1.6-2.2-1.6c-0.6,0-1.1,0.1-1.4,0.4
		c-0.4,0.3-0.6,0.7-0.8,1.2c-0.2,0.6-0.3,1.3-0.4,2.3c-0.1,1-0.1,2.1-0.1,3.5C64.3,18.4,64.3,19.1,64.4,19.7z"/>
	<path class="st0" d="M83.1,19.5c0,0.6,0,1.2,0.1,1.8c0.1,0.6,0.2,1.1,0.4,1.5c0.2,0.4,0.5,0.8,0.8,1.1c0.3,0.3,0.7,0.4,1.2,0.4
		c0.9,0,1.5-0.3,2-1c0.4-0.6,0.7-1.6,0.8-2.9h4.7c-0.1,2.4-0.7,4.2-1.9,5.5c-1.2,1.3-3,1.9-5.6,1.9c-1.9,0-3.4-0.3-4.5-1
		c-1.1-0.6-1.9-1.5-2.4-2.5c-0.5-1-0.8-2.2-0.9-3.5c-0.1-1.3-0.2-2.6-0.2-3.9c0-1.4,0.1-2.7,0.3-4c0.2-1.3,0.6-2.4,1.2-3.4
		c0.6-1,1.4-1.8,2.5-2.4c1.1-0.6,2.5-0.9,4.3-0.9c1.5,0,2.8,0.2,3.8,0.7c1,0.5,1.8,1.2,2.3,2.1c0.6,0.9,0.9,2,1.1,3.3
		c0.2,1.3,0.3,2.7,0.3,4.3v1.2H83.1V19.5z M88.3,12.6c-0.1-0.6-0.2-1.1-0.4-1.5c-0.2-0.4-0.5-0.7-0.8-1c-0.3-0.2-0.8-0.3-1.3-0.3
		c-0.5,0-1,0.1-1.3,0.4c-0.3,0.2-0.6,0.6-0.8,1s-0.4,0.8-0.4,1.3c-0.1,0.5-0.1,1-0.1,1.5v0.8h5.4C88.5,13.9,88.4,13.2,88.3,12.6z"/>
	<path class="st0" d="M102.7,0.8v5.9h3.1v3.6h-3.1v11.1c0,0.8,0.1,1.4,0.4,1.7c0.2,0.3,0.7,0.5,1.5,0.5c0.2,0,0.4,0,0.6,0
		c0.2,0,0.4,0,0.6-0.1v3.7c-0.6,0-1.2,0-1.7,0.1c-0.6,0-1.1,0.1-1.7,0.1c-1,0-1.9-0.1-2.5-0.2c-0.7-0.1-1.2-0.4-1.5-0.8
		c-0.3-0.4-0.6-1-0.7-1.7c-0.1-0.7-0.2-1.6-0.2-2.6V10.3h-2.7V6.7h2.7V0.8H102.7z"/>
	<path class="st0" d="M117.5,0c1.4,0,2.6,0.2,3.5,0.7c1,0.5,1.7,1.1,2.3,1.9c0.6,0.8,1,1.6,1.3,2.6c0.3,1,0.4,2,0.4,3
		c0,1.4-0.2,2.6-0.6,3.7c-0.4,1-1,1.9-1.8,2.6c-0.8,0.7-1.7,1.2-2.7,1.5c-1.1,0.3-2.3,0.5-3.6,0.5h-2.9v10.9h-5.5V0H117.5z
		 M115.8,12.4c1.1,0,2-0.3,2.7-1c0.7-0.7,1-1.7,1-3.1c0-1.4-0.3-2.4-0.9-3.1c-0.6-0.7-1.6-1.1-2.9-1.1h-2.3v8.3H115.8z"/>
	<path class="st0" d="M133,0v27.3h-5.3V0H133z"/>
	<path class="st0" d="M136.7,12.6c0-1.2,0.2-2.2,0.6-3c0.4-0.8,0.9-1.5,1.6-2c0.7-0.5,1.4-0.9,2.3-1.1c0.9-0.2,1.8-0.3,2.8-0.3
		c1.6,0,2.9,0.2,3.8,0.5c1,0.3,1.7,0.7,2.3,1.3c0.5,0.6,0.9,1.2,1.1,2c0.2,0.8,0.3,1.6,0.3,2.5v10.8c0,1,0,1.7,0.1,2.3
		c0.1,0.5,0.3,1.1,0.5,1.7H147c-0.2-0.3-0.3-0.7-0.4-1.1c-0.1-0.4-0.2-0.7-0.2-1.1h-0.1c-0.6,1.1-1.3,1.8-2.1,2.1
		c-0.8,0.3-1.8,0.5-3.1,0.5c-0.9,0-1.7-0.2-2.3-0.5c-0.6-0.3-1.1-0.8-1.5-1.3c-0.4-0.6-0.7-1.2-0.8-1.9S136,22.7,136,22
		c0-1,0.1-1.8,0.3-2.5c0.2-0.7,0.5-1.3,0.9-1.8c0.4-0.5,1-0.9,1.6-1.2c0.7-0.3,1.4-0.6,2.4-0.9l3-0.8c0.8-0.2,1.3-0.5,1.6-0.8
		c0.3-0.4,0.5-0.9,0.5-1.6c0-0.8-0.2-1.4-0.6-1.9c-0.4-0.4-1-0.7-1.9-0.7c-0.8,0-1.4,0.2-1.8,0.7c-0.4,0.5-0.6,1.1-0.6,2v0.6h-4.7
		V12.6z M145.2,17.7c-0.4,0.2-0.8,0.3-1.1,0.4c-1.1,0.2-1.8,0.6-2.3,1.1c-0.5,0.5-0.7,1.3-0.7,2.2c0,0.8,0.2,1.5,0.5,2
		c0.3,0.6,0.8,0.8,1.5,0.8c0.4,0,0.7-0.1,1.1-0.2c0.4-0.1,0.7-0.3,1.1-0.6c0.3-0.3,0.6-0.6,0.8-1s0.3-0.9,0.3-1.5V17
		C146,17.3,145.6,17.5,145.2,17.7z"/>
	<path class="st0" d="M160.2,6.7v2.4h0.1c0.6-1,1.3-1.8,2.2-2.2c0.9-0.5,1.9-0.7,3.1-0.7c1.7,0,3,0.5,3.9,1.4
		c0.9,0.9,1.4,2.4,1.4,4.5v15.3h-5.3V13.1c0-1.1-0.2-1.8-0.5-2.2c-0.4-0.4-0.9-0.6-1.7-0.6c-1.9,0-2.8,1.1-2.8,3.4v13.7h-5.3V6.7
		H160.2z"/>
	<path class="st0" d="M179.3,6.7v2.4h0.1c0.6-1,1.3-1.8,2.2-2.2c0.9-0.5,1.9-0.7,3.1-0.7c1.7,0,3,0.5,3.9,1.4
		c0.9,0.9,1.4,2.4,1.4,4.5v15.3h-5.3V13.1c0-1.1-0.2-1.8-0.5-2.2c-0.4-0.4-0.9-0.6-1.7-0.6c-1.9,0-2.8,1.1-2.8,3.4v13.7h-5.3V6.7
		H179.3z"/>
	<path class="st0" d="M197.9,19.5c0,0.6,0,1.2,0.1,1.8c0.1,0.6,0.2,1.1,0.4,1.5c0.2,0.4,0.5,0.8,0.8,1.1c0.3,0.3,0.7,0.4,1.2,0.4
		c0.9,0,1.5-0.3,2-1c0.4-0.6,0.7-1.6,0.8-2.9h4.7c-0.1,2.4-0.7,4.2-1.9,5.5c-1.2,1.3-3,1.9-5.6,1.9c-1.9,0-3.4-0.3-4.5-1
		c-1.1-0.6-1.9-1.5-2.4-2.5c-0.5-1-0.8-2.2-0.9-3.5c-0.1-1.3-0.2-2.6-0.2-3.9c0-1.4,0.1-2.7,0.3-4c0.2-1.3,0.6-2.4,1.2-3.4
		c0.6-1,1.4-1.8,2.5-2.4c1.1-0.6,2.5-0.9,4.3-0.9c1.5,0,2.8,0.2,3.8,0.7c1,0.5,1.8,1.2,2.3,2.1c0.6,0.9,0.9,2,1.1,3.3
		c0.2,1.3,0.3,2.7,0.3,4.3v1.2h-10.5V19.5z M203.2,12.6c-0.1-0.6-0.2-1.1-0.4-1.5c-0.2-0.4-0.5-0.7-0.8-1c-0.3-0.2-0.8-0.3-1.3-0.3
		s-1,0.1-1.3,0.4c-0.3,0.2-0.6,0.6-0.8,1s-0.4,0.8-0.4,1.3c-0.1,0.5-0.1,1-0.1,1.5v0.8h5.4C203.3,13.9,203.3,13.2,203.2,12.6z"/>
	<path class="st0" d="M216.2,6.7v2.8h0.1c0.5-1,1.2-1.8,2-2.4c0.8-0.6,1.7-0.9,2.8-0.9c0.2,0,0.3,0,0.5,0c0.2,0,0.3,0,0.5,0.1v5.1
		c-0.3,0-0.6,0-0.8-0.1c-0.3,0-0.5,0-0.8,0c-0.5,0-0.9,0.1-1.4,0.2c-0.5,0.1-0.9,0.3-1.3,0.6c-0.4,0.3-0.7,0.7-0.9,1.2
		c-0.2,0.5-0.3,1.1-0.3,1.7v12.4h-5.3V6.7H216.2z"/>
</g>
</svg>
