<svg fill="#263149" xmlns="http://www.w3.org/2000/svg" xmlns:xlink="http://www.w3.org/1999/xlink" version="1.1" x="0px" y="0px" viewBox="0 0 95 118.75" enable-background="new 0 0 95 95" xml:space="preserve"><g><path d="M49.101,44.194L49.1,40.336c0.462,0.249,0.793,0.496,0.994,0.74c0.199,0.244,0.424,0.683,0.673,1.313l4.961-0.788   c-0.32-1.422-1.007-2.541-2.061-3.359c-1.054-0.816-2.576-1.289-4.567-1.412v-1.32h-1.947v1.32   c-2.187,0.115-3.833,0.705-4.94,1.768c-1.106,1.063-1.66,2.387-1.659,3.971c0,1.156,0.275,2.137,0.827,2.941   c0.551,0.805,1.202,1.391,1.953,1.755c0.751,0.365,2.024,0.796,3.82,1.294l0.001,4.713c-0.623-0.303-1.069-0.649-1.341-1.04   c-0.271-0.392-0.486-1.027-0.646-1.907l-5.387,0.627c0.16,0.89,0.4,1.647,0.72,2.273c0.32,0.628,0.775,1.212,1.367,1.754   c0.591,0.543,1.293,0.967,2.106,1.273c0.814,0.307,1.874,0.518,3.181,0.633v2.521h1.947v-2.521   c1.094-0.045,2.018-0.189,2.773-0.434s1.469-0.64,2.14-1.182c0.672-0.543,1.223-1.219,1.653-2.029   c0.432-0.809,0.647-1.699,0.646-2.668c0-1.654-0.6-3.021-1.8-4.097C53.607,45.676,51.803,44.915,49.101,44.194z M47.153,43.7   c-0.563-0.195-0.957-0.439-1.183-0.729c-0.225-0.291-0.338-0.633-0.338-1.025c0-0.376,0.111-0.701,0.333-0.979   c0.223-0.277,0.618-0.51,1.188-0.697V43.7z M50.761,52.569c-0.352,0.388-0.904,0.667-1.66,0.836v-4.279   c0.864,0.303,1.444,0.63,1.741,0.981c0.298,0.353,0.446,0.737,0.446,1.157C51.288,51.746,51.112,52.18,50.761,52.569z"/><path d="M85.269,25.4H9.731c-1.104,0-2,0.896-2,2v40.2c0,1.104,0.896,2,2,2h75.537c1.104,0,2-0.896,2-2V27.4   C87.269,26.295,86.373,25.4,85.269,25.4z M48.047,63.241c-8.717,0-15.783-7.066-15.783-15.783s7.066-15.783,15.783-15.783   c8.718,0,15.784,7.066,15.784,15.783S56.765,63.241,48.047,63.241z"/></g></svg>