<?xml version="1.0" encoding="utf-8"?>
<!-- Generator: Adobe Illustrator 22.1.0, SVG Export Plug-In . SVG Version: 6.00 Build 0)  -->
<svg version="1.1"
	 id="Layer_1" xmlns:cc="http://creativecommons.org/ns#" xmlns:dc="http://purl.org/dc/elements/1.1/" xmlns:inkscape="http://www.inkscape.org/namespaces/inkscape" xmlns:rdf="http://www.w3.org/1999/02/22-rdf-syntax-ns#" xmlns:sodipodi="http://sodipodi.sourceforge.net/DTD/sodipodi-0.dtd" xmlns:svg="http://www.w3.org/2000/svg"
	 xmlns="http://www.w3.org/2000/svg" xmlns:xlink="http://www.w3.org/1999/xlink" x="0px" y="0px" viewBox="0 0 74 74"
	 style="enable-background:new 0 0 74 74;" xml:space="preserve">
<g transform="translate(0,-952.36218)">
	<path d="M37,952.4c-2.2,0-4,1.8-4,4v29H4c-2.2,0-4,1.8-4,4c0,2.2,1.8,4,4,4h29v29c0,2.2,1.8,4,4,4c2.2,0,4-1.8,4-4v-29h29
		c2.2,0,4-1.8,4-4s-1.8-4-4-4H41v-29C41,954.2,39.2,952.4,37,952.4z"/>
</g>
</svg>
