<svg fill="#263149" xmlns="http://www.w3.org/2000/svg" xmlns:xlink="http://www.w3.org/1999/xlink" version="1.1" x="0px" y="0px" viewBox="0 0 100 125" enable-background="new 0 0 100 100" xml:space="preserve"><g><path d="M50,40.624c-5.17,0-9.376,4.206-9.376,9.376S44.83,59.376,50,59.376S59.376,55.17,59.376,50S55.17,40.624,50,40.624z"/><path d="M50,26.931C37.28,26.931,26.931,37.28,26.931,50S37.28,73.069,50,73.069S73.069,62.72,73.069,50S62.72,26.931,50,26.931z    M50,65.376c-8.479,0-15.376-6.897-15.376-15.376S41.521,34.624,50,34.624S65.376,41.521,65.376,50S58.479,65.376,50,65.376z"/><path d="M50,10.238c-21.925,0-39.762,17.837-39.762,39.762S28.075,89.762,50,89.762S89.762,71.925,89.762,50   S71.925,10.238,50,10.238z M50,79.069c-16.029,0-29.069-13.04-29.069-29.069S33.971,20.931,50,20.931S79.069,33.971,79.069,50   S66.029,79.069,50,79.069z"/></g></svg>