<svg fill="#263149" xmlns="http://www.w3.org/2000/svg" xmlns:xlink="http://www.w3.org/1999/xlink" version="1.1" x="0px" y="0px" viewBox="0 0 16 20" style="enable-background:new 0 0 16 16;" xml:space="preserve"><g><path d="M14,4h-2V2H2.5C1.673,2,1,2.673,1,3.5c0,0.312,0,10,0,10C1,14.328,1.672,15,2.5,15H14c0.552,0,1-0.448,1-1V5   C15,4.448,14.552,4,14,4z M2.5,4C2.224,4,2,3.776,2,3.5S2.224,3,2.5,3H11v1H9H2.5z M14,11h-2.5c-0.828,0-1.5-0.672-1.5-1.5   S10.672,8,11.5,8H14V11z"/><circle cx="11.5" cy="9.5" r="0.5"/></g></svg>