<?xml version="1.0" standalone="no"?>
<!DOCTYPE svg PUBLIC "-//W3C//DTD SVG 20010904//EN"
 "http://www.w3.org/TR/2001/REC-SVG-20010904/DTD/svg10.dtd">
<svg version="1.0" xmlns="http://www.w3.org/2000/svg"
 width="260.000000pt" height="260.000000pt" viewBox="0 0 260.000000 260.000000"
 preserveAspectRatio="xMidYMid meet">
<metadata>
Created by potrace 1.11, written by Peter Selinger 2001-2013
</metadata>
<g transform="translate(0.000000,260.000000) scale(0.100000,-0.100000)"
fill="#000000" stroke="none">
<path d="M298 2546 c-93 -25 -179 -99 -225 -195 l-28 -56 0 -1000 0 -1000 29
-59 c36 -74 99 -136 173 -173 l58 -28 1000 0 1000 0 59 29 c72 35 137 101 173
175 l28 56 0 1000 0 1000 -28 57 c-36 72 -107 143 -177 177 l-55 26 -980 2
c-769 1 -990 -1 -1027 -11z"/>
</g>
</svg>
